<?xml version="1.0" standalone="no"?>
<!DOCTYPE svg PUBLIC "-//W3C//DTD SVG 20010904//EN"
 "http://www.w3.org/TR/2001/REC-SVG-20010904/DTD/svg10.dtd">
<svg version="1.0" xmlns="http://www.w3.org/2000/svg"
 width="1280.000000pt" height="1157.000000pt" viewBox="0 0 1280.000000 1157.000000"
 preserveAspectRatio="xMidYMid meet">
<g transform="translate(0.000000,1157.000000) scale(0.100000,-0.100000)"
fill="#000000" stroke="none">
<path d="M6219 11566 c-3 -3 -57 -13 -120 -22 -326 -45 -668 -178 -969 -376
-63 -41 -405 -292 -760 -557 l-644 -481 -1021 0 -1021 0 -27 -28 -27 -28 0
-736 c0 -425 -4 -747 -9 -761 -6 -16 -288 -232 -798 -612 -433 -323 -789 -589
-791 -590 -1 -1 -2 -1630 -2 -3620 0 -2384 -3 -3622 -10 -3630 -6 -8 -6 -31 2
-68 l12 -57 6362 0 6361 0 12 58 c8 42 11 1018 11 3627 0 2359 3 3572 10 3579
6 6 10 30 10 56 l0 45 -371 275 c-204 151 -567 421 -807 600 l-437 326 -5 756
-5 756 -24 26 -24 26 -1022 0 -1022 0 -654 487 c-360 268 -688 508 -730 534
-94 58 -324 175 -453 228 -186 77 -390 134 -601 167 -108 16 -415 31 -426 20z"/>
</g>
</svg>
